<?xml version="1.0" encoding="UTF-8"?>
<svg width="250pt" height="250pt" version="1.1" viewBox="0 0 100 100" xmlns="http://www.w3.org/2000/svg">
 <g>
  <path d="m27.082 25c0 5.5547-8.332 5.5547-8.332 0s8.332-5.5547 8.332 0"/>
  <path d="m35.418 20.832h45.832v8.332h-45.832z"/>
  <path d="m27.082 41.668c0 5.5547-8.332 5.5547-8.332 0 0-5.5586 8.332-5.5586 8.332 0"/>
  <path d="m35.418 37.5h45.832v8.332h-45.832z"/>
  <path d="m27.082 58.332c0 5.5586-8.332 5.5586-8.332 0 0-5.5547 8.332-5.5547 8.332 0"/>
  <path d="m35.418 54.168h45.832v8.332h-45.832z"/>
  <path d="m27.082 75c0 5.5547-8.332 5.5547-8.332 0s8.332-5.5547 8.332 0"/>
  <path d="m35.418 70.832h45.832v8.332h-45.832z"/>
 </g>
</svg>
